<mxfile host="app.diagrams.net" modified="2021-08-25T15:32:50.982Z" agent="5.0 (X11)" etag="N7FKHPbg1s_ucjWJrdOO" version="14.9.9" type="github">
  <diagram id="CAZZak_FirUkJ6t7yPCO" name="Page-1">
    <mxGraphModel dx="1420" dy="1889" grid="1" gridSize="10" guides="1" tooltips="1" connect="1" arrows="1" fold="1" page="1" pageScale="1" pageWidth="850" pageHeight="1100" math="0" shadow="0">
      <root>
        <mxCell id="0" />
        <mxCell id="1" parent="0" />
        <mxCell id="ZQ06bYMubK2WD7voXs-C-1" value="SQL" style="shape=cylinder3;whiteSpace=wrap;html=1;boundedLbl=1;backgroundOutline=1;size=15;" parent="1" vertex="1">
          <mxGeometry x="220" y="320" width="60" height="80" as="geometry" />
        </mxCell>
        <mxCell id="ZQ06bYMubK2WD7voXs-C-6" value="Service classes" style="whiteSpace=wrap;html=1;" parent="1" vertex="1">
          <mxGeometry x="520" y="90" width="120" height="60" as="geometry" />
        </mxCell>
        <mxCell id="ZQ06bYMubK2WD7voXs-C-18" value="BUSINESS LOGIC" style="swimlane;startSize=0;labelBackgroundColor=#ffffff;" parent="1" vertex="1">
          <mxGeometry x="500" y="70" width="330" height="220" as="geometry" />
        </mxCell>
        <mxCell id="ZQ06bYMubK2WD7voXs-C-7" value="Helper functions" style="whiteSpace=wrap;html=1;" parent="ZQ06bYMubK2WD7voXs-C-18" vertex="1">
          <mxGeometry x="150" y="20" width="120" height="60" as="geometry" />
        </mxCell>
        <mxCell id="nsTxIgaTA_aL1YBBRUu6-2" value="&lt;div&gt;Direct access between the view layer and persistence layer happens when the controller does not pass along a &lt;i&gt;domain object&lt;/i&gt;, but instead an associative array fetched directly from the database.&lt;/div&gt;&lt;div&gt;&lt;br&gt;&lt;/div&gt;&lt;div&gt;Example: xml_path, relative depending on object type.&lt;/div&gt;&lt;div&gt;&lt;br&gt;&lt;/div&gt;&lt;div&gt;Passing around objects is an important part of maintaining the integrity of the abstraction layers.&lt;br&gt;&lt;/div&gt;" style="text;html=1;strokeColor=#b85450;fillColor=#f8cecc;align=left;verticalAlign=top;whiteSpace=wrap;rounded=0;fontSize=14;" vertex="1" parent="ZQ06bYMubK2WD7voXs-C-18">
          <mxGeometry y="-10" width="270" height="250" as="geometry" />
        </mxCell>
        <mxCell id="ZQ06bYMubK2WD7voXs-C-21" value="CONTROLLER" style="swimlane;startSize=0;labelBackgroundColor=#ffffff;" parent="1" vertex="1">
          <mxGeometry x="130" y="70" width="350" height="100" as="geometry" />
        </mxCell>
        <mxCell id="ZQ06bYMubK2WD7voXs-C-3" value="Controller" style="rounded=0;whiteSpace=wrap;html=1;" parent="ZQ06bYMubK2WD7voXs-C-21" vertex="1">
          <mxGeometry x="150" y="20" width="120" height="60" as="geometry" />
        </mxCell>
        <mxCell id="ZQ06bYMubK2WD7voXs-C-20" value="Remote API" style="rounded=0;whiteSpace=wrap;html=1;" parent="ZQ06bYMubK2WD7voXs-C-21" vertex="1">
          <mxGeometry x="20" y="20" width="120" height="60" as="geometry" />
        </mxCell>
        <mxCell id="ZQ06bYMubK2WD7voXs-C-27" value="VIEW" style="swimlane;startSize=0;swimlaneFillColor=none;swimlaneLine=1;rounded=0;shadow=0;sketch=0;labelBackgroundColor=#ffffff;" parent="1" vertex="1">
          <mxGeometry x="130" y="-50" width="700" height="100" as="geometry" />
        </mxCell>
        <mxCell id="ZQ06bYMubK2WD7voXs-C-28" value="JSON/XML" style="rounded=0;whiteSpace=wrap;html=1;" parent="ZQ06bYMubK2WD7voXs-C-27" vertex="1">
          <mxGeometry x="20" y="20" width="120" height="60" as="geometry" />
        </mxCell>
        <mxCell id="ZQ06bYMubK2WD7voXs-C-48" value="Widget" style="rounded=0;whiteSpace=wrap;html=1;" parent="ZQ06bYMubK2WD7voXs-C-27" vertex="1">
          <mxGeometry x="410" y="20" width="120" height="60" as="geometry" />
        </mxCell>
        <mxCell id="ZQ06bYMubK2WD7voXs-C-25" value="Twig" style="rounded=0;whiteSpace=wrap;html=1;" parent="ZQ06bYMubK2WD7voXs-C-27" vertex="1">
          <mxGeometry x="150" y="20" width="120" height="60" as="geometry" />
        </mxCell>
        <mxCell id="ZQ06bYMubK2WD7voXs-C-4" value="Yii view files" style="rounded=0;whiteSpace=wrap;html=1;" parent="ZQ06bYMubK2WD7voXs-C-27" vertex="1">
          <mxGeometry x="280" y="20" width="120" height="60" as="geometry" />
        </mxCell>
        <mxCell id="ZQ06bYMubK2WD7voXs-C-30" value="Local machine" style="rounded=0;whiteSpace=wrap;html=1;" parent="1" vertex="1">
          <mxGeometry x="170" y="-220" width="120" height="60" as="geometry" />
        </mxCell>
        <mxCell id="ZQ06bYMubK2WD7voXs-C-31" value="Admin" style="shape=umlActor;verticalLabelPosition=bottom;verticalAlign=top;html=1;outlineConnect=0;" parent="1" vertex="1">
          <mxGeometry x="590" y="-320" width="30" height="60" as="geometry" />
        </mxCell>
        <mxCell id="ZQ06bYMubK2WD7voXs-C-32" value="Participant" style="shape=umlActor;verticalLabelPosition=bottom;verticalAlign=top;html=1;outlineConnect=0;" parent="1" vertex="1">
          <mxGeometry x="720" y="-320" width="30" height="60" as="geometry" />
        </mxCell>
        <mxCell id="ZQ06bYMubK2WD7voXs-C-33" value="Developer" style="shape=umlActor;verticalLabelPosition=bottom;verticalAlign=top;html=1;outlineConnect=0;" parent="1" vertex="1">
          <mxGeometry x="215" y="-320" width="30" height="60" as="geometry" />
        </mxCell>
        <mxCell id="ZQ06bYMubK2WD7voXs-C-36" value="Http Request" style="rounded=0;whiteSpace=wrap;html=1;" parent="1" vertex="1">
          <mxGeometry x="130" y="-100" width="700" height="30" as="geometry" />
        </mxCell>
        <mxCell id="ZQ06bYMubK2WD7voXs-C-38" value="MODEL" style="swimlane;startSize=0;labelBackgroundColor=#ffffff;labelBorderColor=none;" parent="1" vertex="1">
          <mxGeometry x="130" y="190" width="320" height="100" as="geometry" />
        </mxCell>
        <mxCell id="ZQ06bYMubK2WD7voXs-C-40" value="ActiveRecord" style="rounded=0;whiteSpace=wrap;html=1;" parent="ZQ06bYMubK2WD7voXs-C-38" vertex="1">
          <mxGeometry x="150" y="20" width="120" height="60" as="geometry" />
        </mxCell>
        <mxCell id="ZQ06bYMubK2WD7voXs-C-41" value="Repository" style="rounded=0;whiteSpace=wrap;html=1;" parent="ZQ06bYMubK2WD7voXs-C-38" vertex="1">
          <mxGeometry x="20" y="20" width="120" height="60" as="geometry" />
        </mxCell>
        <mxCell id="ZQ06bYMubK2WD7voXs-C-44" value="BROWSER" style="swimlane;startSize=0;labelBackgroundColor=#ffffff;" parent="1" vertex="1">
          <mxGeometry x="530" y="-220" width="300" height="100" as="geometry" />
        </mxCell>
        <mxCell id="ZQ06bYMubK2WD7voXs-C-5" value="JavaScript" style="whiteSpace=wrap;html=1;" parent="ZQ06bYMubK2WD7voXs-C-44" vertex="1">
          <mxGeometry x="170" y="20" width="120" height="60" as="geometry" />
        </mxCell>
        <mxCell id="ZQ06bYMubK2WD7voXs-C-49" value="&lt;div align=&quot;left&quot;&gt;Cache,&lt;br&gt;&lt;/div&gt;&lt;div align=&quot;left&quot;&gt;browser storage,&lt;/div&gt;&lt;div align=&quot;left&quot;&gt;cookies&lt;/div&gt;" style="text;html=1;strokeColor=none;fillColor=none;align=left;verticalAlign=middle;whiteSpace=wrap;rounded=0;" parent="ZQ06bYMubK2WD7voXs-C-44" vertex="1">
          <mxGeometry x="20" y="40" width="130" height="20" as="geometry" />
        </mxCell>
        <mxCell id="ZQ06bYMubK2WD7voXs-C-46" value="Files" style="shape=cylinder3;whiteSpace=wrap;html=1;boundedLbl=1;backgroundOutline=1;size=15;" parent="1" vertex="1">
          <mxGeometry x="530" y="320" width="60" height="80" as="geometry" />
        </mxCell>
        <mxCell id="sVkk13WtHpjU11I0KpUk-1" value="Cache" style="shape=cylinder3;whiteSpace=wrap;html=1;boundedLbl=1;backgroundOutline=1;size=15;" parent="1" vertex="1">
          <mxGeometry x="610" y="320" width="60" height="80" as="geometry" />
        </mxCell>
        <mxCell id="sVkk13WtHpjU11I0KpUk-2" value="Yii" style="rounded=0;whiteSpace=wrap;html=1;direction=south;" parent="1" vertex="1">
          <mxGeometry x="860" y="-220" width="30" height="510" as="geometry" />
        </mxCell>
        <mxCell id="sVkk13WtHpjU11I0KpUk-3" value="Vue" style="rounded=0;whiteSpace=wrap;html=1;direction=south;" parent="1" vertex="1">
          <mxGeometry x="910" y="-220" width="30" height="270" as="geometry" />
        </mxCell>
        <mxCell id="nsTxIgaTA_aL1YBBRUu6-1" value="" style="endArrow=classic;html=1;entryX=1;entryY=0;entryDx=0;entryDy=15;entryPerimeter=0;exitX=0.5;exitY=1;exitDx=0;exitDy=0;fillColor=#f8cecc;strokeColor=#b85450;strokeWidth=8;" edge="1" parent="1" source="ZQ06bYMubK2WD7voXs-C-4" target="ZQ06bYMubK2WD7voXs-C-1">
          <mxGeometry width="50" height="50" relative="1" as="geometry">
            <mxPoint x="590" y="130" as="sourcePoint" />
            <mxPoint x="640" y="80" as="targetPoint" />
          </mxGeometry>
        </mxCell>
      </root>
    </mxGraphModel>
  </diagram>
</mxfile>
